<svg version="1.1" id="Layer_1" xmlns="http://www.w3.org/2000/svg" xmlns:xlink="http://www.w3.org/1999/xlink" x="0px" y="0px"
	 width="100%" viewBox="0 0 50 50" enable-background="new 0 0 50 50" xml:space="preserve">
<path fill="#000000" opacity="1.000000" stroke="none" 
	d="
M28.000162,51.000000 
	C18.666779,51.000000 9.833448,51.000000 1.000090,51.000000 
	C1.000060,34.333382 1.000060,17.666761 1.000030,1.000108 
	C17.666611,1.000072 34.333221,1.000072 50.999874,1.000036 
	C50.999916,17.666603 50.999916,34.333206 50.999958,50.999905 
	C43.500072,51.000000 36.000145,51.000000 28.000162,51.000000 
M30.964209,43.555584 
	C33.331333,40.839836 35.800217,38.205292 38.045155,35.392040 
	C43.292580,28.816217 45.000237,21.545967 41.161415,13.752630 
	C37.724270,6.774745 31.741758,4.675570 24.116217,4.870856 
	C14.587301,5.114887 5.618582,15.990834 9.929294,27.577394 
	C13.017410,35.877804 18.623117,42.187702 25.889956,47.133427 
	C27.509809,46.031017 28.968346,45.038395 30.964209,43.555584 
z"/>
<path fill="#FFFFFF" opacity="1.000000" stroke="none" 
	d="
M30.695545,43.800678 
	C28.968346,45.038395 27.509809,46.031017 25.889956,47.133427 
	C18.623117,42.187702 13.017410,35.877804 9.929294,27.577394 
	C5.618582,15.990834 14.587301,5.114887 24.116217,4.870856 
	C31.741758,4.675570 37.724270,6.774745 41.161415,13.752630 
	C45.000237,21.545967 43.292580,28.816217 38.045155,35.392040 
	C35.800217,38.205292 33.331333,40.839836 30.695545,43.800678 
M34.987793,12.481179 
	C28.393015,7.098279 22.487518,8.270016 17.656126,11.924471 
	C13.310074,15.211815 11.316917,21.943123 14.168010,26.821188 
	C17.287346,32.158203 21.603277,36.795837 25.681822,42.108372 
	C28.813995,38.852146 31.156794,36.699471 33.168320,34.272255 
	C39.174183,27.025244 41.484531,21.132690 34.987793,12.481179 
z"/>
<path fill="#000000" opacity="1.000000" stroke="none" 
	d="
M35.266186,12.754641 
	C41.484531,21.132690 39.174183,27.025244 33.168320,34.272255 
	C31.156794,36.699471 28.813995,38.852146 25.681822,42.108372 
	C21.603277,36.795837 17.287346,32.158203 14.168010,26.821188 
	C11.316917,21.943123 13.310074,15.211815 17.656126,11.924471 
	C22.487518,8.270016 28.393015,7.098279 35.266186,12.754641 
M29.959827,19.716499 
	C26.305338,17.009651 22.596786,17.249596 22.053503,20.306814 
	C21.574203,23.003981 22.354206,25.524839 25.381979,25.902592 
	C29.130102,26.370216 30.214918,23.869976 29.959827,19.716499 
z"/>
<path fill="#FFFFFF" opacity="1.000000" stroke="none" 
	d="
M29.978424,20.138733 
	C30.214918,23.869976 29.130102,26.370216 25.381979,25.902592 
	C22.354206,25.524839 21.574203,23.003981 22.053503,20.306814 
	C22.596786,17.249596 26.305338,17.009651 29.978424,20.138733 
z"/>
</svg>