<svg version="1.1" id="Layer_1" xmlns="http://www.w3.org/2000/svg" xmlns:xlink="http://www.w3.org/1999/xlink" x="0px" y="0px"
	 width="100%" viewBox="0 0 333 331" enable-background="new 0 0 333 331" xml:space="preserve">
<path fill="#FBFBFB" opacity="1.000000" stroke="none" 
	d="
M37.000000,1.000000 
	C43.021152,1.000000 49.042305,1.000000 55.197754,1.278858 
	C55.601768,1.944294 55.785526,2.529069 56.153656,2.688714 
	C68.020119,7.834827 76.187065,17.276337 84.013939,26.986183 
	C104.398888,52.275288 124.623413,77.693703 144.883484,103.525230 
	C144.905655,126.912582 144.965485,149.835236 144.979492,172.757904 
	C144.980194,173.894409 144.582291,175.031128 144.117462,175.913422 
	C139.646881,170.347977 135.371033,165.081558 131.221420,159.717499 
	C118.007622,142.636581 104.863556,125.501694 91.647293,108.422676 
	C83.678299,98.124580 75.625290,87.891495 67.297714,77.229317 
	C67.008926,78.360046 66.797836,78.807640 66.793503,79.257225 
	C66.259193,134.713257 65.593201,190.168716 65.323166,245.626099 
	C65.255325,259.558197 65.667053,273.536652 69.588539,287.177307 
	C72.831146,298.456512 77.555008,304.486206 90.344536,304.560913 
	C97.902260,304.605042 101.861946,309.092987 102.221268,316.564728 
	C102.586693,324.163055 99.590866,327.922150 92.150063,329.624908 
	C90.980125,329.892609 90.044151,331.182648 89.000000,332.000000 
	C66.312439,332.000000 43.624878,332.000000 20.751347,331.651611 
	C18.388626,330.681000 16.224243,330.010681 14.032456,329.446930 
	C9.970697,328.402191 6.538910,326.596741 5.367095,322.179718 
	C2.582973,311.685211 7.096893,305.277283 17.830791,304.401276 
	C26.183130,303.719604 32.801674,298.023987 33.490349,289.942993 
	C34.549152,277.518829 35.590015,265.048737 35.664646,252.592300 
	C36.125366,175.696228 36.304626,98.798470 36.606152,21.901384 
	C36.633469,14.933848 36.863892,7.967109 37.000000,1.000000 
z"/>
<path fill="#010201" opacity="1.000000" stroke="none" 
	d="
M283.000000,1.000000 
	C299.980194,1.000000 316.960388,1.000000 333.970276,1.000000 
	C333.970276,111.333336 333.970276,221.666672 333.970276,332.000000 
	C330.283173,332.000000 326.620758,332.000000 322.309174,331.663391 
	C322.953949,330.315979 324.280548,329.343964 325.535980,328.287354 
	C329.763794,324.729004 331.441376,317.551208 329.437439,311.797577 
	C327.609131,306.548248 323.540039,305.081818 318.452820,305.106537 
	C308.329529,305.155701 298.205017,305.169983 288.082794,305.049438 
	C286.004333,305.024689 283.933655,304.346527 281.833801,303.503510 
	C282.336334,278.415283 283.286713,253.793518 283.314026,229.170715 
	C283.398468,153.114029 283.130890,77.056938 283.000000,1.000000 
z"/>
<path fill="#010101" opacity="1.000000" stroke="none" 
	d="
M89.468658,332.000000 
	C90.044151,331.182648 90.980125,329.892609 92.150063,329.624908 
	C99.590866,327.922150 102.586693,324.163055 102.221268,316.564728 
	C101.861946,309.092987 97.902260,304.605042 90.344536,304.560913 
	C77.555008,304.486206 72.831146,298.456512 69.588539,287.177307 
	C65.667053,273.536652 65.255325,259.558197 65.323166,245.626099 
	C65.593201,190.168716 66.259193,134.713257 66.793503,79.257225 
	C66.797836,78.807640 67.008926,78.360046 67.297714,77.229317 
	C75.625290,87.891495 83.678299,98.124580 91.647293,108.422676 
	C104.863556,125.501694 118.007622,142.636581 131.221420,159.717499 
	C135.371033,165.081558 139.646881,170.347977 144.259583,176.238403 
	C145.102997,178.427414 145.928894,180.033966 145.942398,181.647308 
	C146.083038,198.436813 146.093079,215.227402 145.824646,232.291229 
	C145.734879,237.700394 145.959824,242.836044 146.148712,248.440521 
	C146.282959,267.204834 146.453262,285.500305 146.442108,304.251465 
	C146.173782,313.804779 146.086884,322.902374 146.000000,332.000000 
	C127.312439,332.000000 108.624878,332.000000 89.468658,332.000000 
z"/>
<path fill="#010201" opacity="1.000000" stroke="none" 
	d="
M178.000000,1.000000 
	C198.020889,1.000000 218.041794,1.000000 238.833618,1.334412 
	C237.297302,2.387466 234.889175,2.887547 232.713531,3.891458 
	C230.854309,4.749358 229.261887,6.185480 227.551437,7.365842 
	C228.887024,9.147488 229.862656,11.803726 231.631851,12.531857 
	C235.522018,14.132911 239.770233,15.375684 243.948868,15.667293 
	C256.029388,16.510336 260.942383,20.934185 261.882446,32.841808 
	C262.039551,34.831886 262.053955,36.837864 262.042236,38.835957 
	C261.705444,96.160362 261.404541,153.485062 260.961609,210.808670 
	C260.890747,219.981583 260.175537,229.149490 259.715546,239.257294 
	C258.137085,237.347778 257.175293,236.244537 256.278717,235.090622 
	C241.975662,216.681961 227.741028,198.219772 213.364899,179.868408 
	C202.295593,165.738251 191.050781,151.745590 179.866974,137.291412 
	C179.531677,134.791779 178.941101,132.693130 178.936401,130.593155 
	C178.874619,102.992279 178.918457,75.391197 178.886368,47.790230 
	C178.869156,32.996685 178.756973,18.203253 178.701843,3.090215 
	C178.477371,2.180439 178.238678,1.590220 178.000000,1.000000 
z"/>
<path fill="#4CAD49" opacity="1.000000" stroke="none" 
	d="
M178.687637,3.409770 
	C178.756973,18.203253 178.869156,32.996685 178.886368,47.790230 
	C178.918457,75.391197 178.874619,102.992279 178.936401,130.593155 
	C178.941101,132.693130 179.531677,134.791779 179.597107,137.641876 
	C179.243790,138.876755 179.055679,139.360733 179.055374,139.844864 
	C179.041061,162.544159 179.030228,185.243484 179.076996,207.942688 
	C179.079636,209.219376 179.571716,210.495056 179.582916,212.126099 
	C179.187866,213.123520 178.922073,213.765991 178.921722,214.408600 
	C178.908157,239.186172 178.805115,263.964569 178.987091,288.740875 
	C179.052231,297.608978 187.282120,305.865997 196.329956,305.972626 
	C215.749695,306.201569 235.174561,305.992798 254.918579,305.851868 
	C261.826538,314.493683 268.413269,323.246826 275.000000,332.000000 
	C232.979111,332.000000 190.958206,332.000000 148.488663,331.531555 
	C147.999863,323.631134 148.034958,316.197418 147.861847,308.768524 
	C147.823013,307.102234 147.055573,305.452911 146.623566,303.795776 
	C146.453262,285.500305 146.282959,267.204834 146.406494,248.125732 
	C146.513351,242.233978 146.326355,237.125839 146.139343,232.017700 
	C146.093079,215.227402 146.083038,198.436813 145.942398,181.647308 
	C145.928894,180.033966 145.102997,178.427414 144.512115,176.492737 
	C144.582291,175.031128 144.980194,173.894409 144.979492,172.757904 
	C144.965485,149.835236 144.905655,126.912582 144.865112,103.053329 
	C144.640503,91.827911 144.574356,81.531792 144.129105,71.252106 
	C143.553467,57.962444 142.879440,44.670258 141.864731,31.408470 
	C140.994171,20.030575 138.937561,18.215141 127.820427,15.200914 
	C123.559036,14.045507 119.421638,12.136787 115.530251,10.016210 
	C112.909775,8.588206 112.662819,6.371475 116.259384,4.963064 
	C116.812714,4.743277 117.095795,4.531482 117.755127,4.272181 
	C119.379646,4.036179 120.627930,3.847683 122.254913,3.737902 
	C123.755745,2.877745 124.877876,1.938873 126.000000,1.000001 
	C128.700012,1.000000 131.400024,1.000000 134.488602,1.416236 
	C138.744385,2.149359 142.606689,2.639919 146.479782,2.749897 
	C157.213318,3.054680 167.951370,3.200891 178.687637,3.409770 
z"/>
<path fill="#FBFBFB" opacity="1.000000" stroke="none" 
	d="
M179.835983,211.771194 
	C179.571716,210.495056 179.079636,209.219376 179.076996,207.942688 
	C179.030228,185.243484 179.041061,162.544159 179.055374,139.844864 
	C179.055679,139.360733 179.243790,138.876755 179.614151,138.042236 
	C191.050781,151.745590 202.295593,165.738251 213.364899,179.868408 
	C227.741028,198.219772 241.975662,216.681961 256.278717,235.090622 
	C257.175293,236.244537 258.137085,237.347778 259.715546,239.257294 
	C260.175537,229.149490 260.890747,219.981583 260.961609,210.808670 
	C261.404541,153.485062 261.705444,96.160362 262.042236,38.835957 
	C262.053955,36.837864 262.039551,34.831886 261.882446,32.841808 
	C260.942383,20.934185 256.029388,16.510336 243.948868,15.667293 
	C239.770233,15.375684 235.522018,14.132911 231.631851,12.531857 
	C229.862656,11.803726 228.887024,9.147488 227.551437,7.365842 
	C229.261887,6.185480 230.854309,4.749358 232.713531,3.891458 
	C234.889175,2.887547 237.297302,2.387466 239.302277,1.334412 
	C253.354233,1.000000 267.708466,1.000000 282.531342,1.000000 
	C283.130890,77.056938 283.398468,153.114029 283.314026,229.170715 
	C283.286713,253.793518 282.336334,278.415283 281.603577,303.847046 
	C280.599304,313.771027 279.799652,322.885529 279.000000,332.000000 
	C277.933319,332.000000 276.866669,332.000000 275.399994,332.000000 
	C268.413269,323.246826 261.826538,314.493683 254.845062,305.491577 
	C241.640732,289.127380 228.856262,272.992096 216.014221,256.902710 
	C203.986511,241.833572 191.897842,226.813080 179.835983,211.771194 
z"/>
<path fill="#030403" opacity="1.000000" stroke="none" 
	d="
M36.531342,1.000000 
	C36.863892,7.967109 36.633469,14.933848 36.606152,21.901384 
	C36.304626,98.798470 36.125366,175.696228 35.664646,252.592300 
	C35.590015,265.048737 34.549152,277.518829 33.490349,289.942993 
	C32.801674,298.023987 26.183130,303.719604 17.830791,304.401276 
	C7.096893,305.277283 2.582973,311.685211 5.367095,322.179718 
	C6.538910,326.596741 9.970697,328.402191 14.032456,329.446930 
	C16.224243,330.010681 18.388626,330.681000 20.282688,331.651611 
	C13.673850,332.000000 7.347701,332.000000 1.051218,332.000000 
	C1.051218,221.666656 1.051218,111.333313 1.051218,1.000000 
	C12.755852,1.000000 24.409267,1.000000 36.531342,1.000000 
z"/>
<path fill="#030403" opacity="1.000000" stroke="none" 
	d="
M121.876205,3.659188 
	C120.627930,3.847683 119.379646,4.036179 117.475403,4.250223 
	C116.542664,4.507534 116.265900,4.739295 115.989136,4.971056 
	C112.662819,6.371475 112.909775,8.588206 115.530251,10.016210 
	C119.421638,12.136787 123.559036,14.045507 127.820427,15.200914 
	C138.937561,18.215141 140.994171,20.030575 141.864731,31.408470 
	C142.879440,44.670258 143.553467,57.962444 144.129105,71.252106 
	C144.574356,81.531792 144.640503,91.827911 144.893555,102.588623 
	C124.623413,77.693703 104.398888,52.275288 84.013939,26.986183 
	C76.187065,17.276337 68.020119,7.834827 56.153656,2.688714 
	C55.785526,2.529069 55.601768,1.944294 55.666027,1.278858 
	C77.687561,1.000000 99.375122,1.000000 121.557556,1.333559 
	C121.993683,2.331142 121.934944,2.995165 121.876205,3.659188 
z"/>
<path fill="#4DAD4A" opacity="1.000000" stroke="none" 
	d="
M279.468658,332.000000 
	C279.799652,322.885529 280.599304,313.771027 281.629181,304.313049 
	C283.933655,304.346527 286.004333,305.024689 288.082794,305.049438 
	C298.205017,305.169983 308.329529,305.155701 318.452820,305.106537 
	C323.540039,305.081818 327.609131,306.548248 329.437439,311.797577 
	C331.441376,317.551208 329.763794,324.729004 325.535980,328.287354 
	C324.280548,329.343964 322.953949,330.315979 321.829987,331.663391 
	C307.979095,332.000000 293.958221,332.000000 279.468658,332.000000 
z"/>
<path fill="#143913" opacity="1.000000" stroke="none" 
	d="
M178.701843,3.090214 
	C167.951370,3.200891 157.213318,3.054680 146.479782,2.749897 
	C142.606689,2.639919 138.744385,2.149359 134.938583,1.416236 
	C149.020889,1.000000 163.041794,1.000000 177.531342,1.000000 
	C178.238678,1.590220 178.477371,2.180439 178.701843,3.090214 
z"/>
<path fill="#2E6E2C" opacity="1.000000" stroke="none" 
	d="
M146.442123,304.251465 
	C147.055573,305.452911 147.823013,307.102234 147.861847,308.768524 
	C148.034958,316.197418 147.999863,323.631134 148.020004,331.531555 
	C147.555557,332.000000 147.111099,332.000000 146.333313,332.000000 
	C146.086884,322.902374 146.173782,313.804779 146.442123,304.251465 
z"/>
<path fill="#143913" opacity="1.000000" stroke="none" 
	d="
M122.254913,3.737903 
	C121.934944,2.995165 121.993683,2.331142 122.026215,1.333559 
	C123.066673,1.000000 124.133339,1.000000 125.600006,1.000001 
	C124.877876,1.938873 123.755745,2.877745 122.254913,3.737903 
z"/>
<path fill="#2E6E2C" opacity="1.000000" stroke="none" 
	d="
M145.824646,232.291229 
	C146.326355,237.125839 146.513351,242.233978 146.442566,247.656906 
	C145.959824,242.836044 145.734879,237.700394 145.824646,232.291229 
z"/>
<path fill="#030303" opacity="1.000000" stroke="none" 
	d="
M179.582916,212.126099 
	C191.897842,226.813080 203.986511,241.833572 216.014221,256.902710 
	C228.856262,272.992096 241.640732,289.127380 254.523834,305.602936 
	C235.174561,305.992798 215.749695,306.201569 196.329956,305.972626 
	C187.282120,305.865997 179.052231,297.608978 178.987091,288.740875 
	C178.805115,263.964569 178.908157,239.186172 178.921722,214.408600 
	C178.922073,213.765991 179.187866,213.123520 179.582916,212.126099 
z"/>
<path fill="#143913" opacity="1.000000" stroke="none" 
	d="
M116.259384,4.963065 
	C116.265900,4.739295 116.542664,4.507534 117.099152,4.297730 
	C117.095795,4.531482 116.812714,4.743277 116.259384,4.963065 
z"/>
</svg>