<svg version="1.1" id="Layer_1" xmlns="http://www.w3.org/2000/svg" xmlns:xlink="http://www.w3.org/1999/xlink" x="0px" y="0px"
	 width="100%" viewBox="0 0 512 512" enable-background="new 0 0 512 512" xml:space="preserve">
<path fill="#FFFFFF" opacity="1.000000" stroke="none" 
	d="
M513.000000,286.000000 
	C513.000000,361.632294 513.000000,437.264557 513.000000,512.948425 
	C342.445251,512.948425 171.890503,512.948425 1.000000,512.948425 
	C1.000000,439.978912 1.000000,366.957306 1.371896,293.613129 
	C2.153850,293.975739 2.813179,294.619507 2.934927,295.352570 
	C4.006013,301.801971 4.866431,308.287567 6.004801,314.724335 
	C11.218332,344.203400 22.331455,371.498322 37.678757,397.011597 
	C52.182041,421.121826 70.400238,442.216187 91.907310,460.447906 
	C106.090805,472.471375 121.354683,482.935974 137.917908,491.271576 
	C149.429428,497.064911 161.504135,501.762329 173.428970,506.703857 
	C182.991623,510.666534 194.291794,506.847015 194.042496,493.436157 
	C193.835022,482.275482 194.000000,471.107880 194.000000,459.943359 
	C194.000000,457.020844 194.000000,454.098328 194.000000,451.112091 
	C191.765732,451.112091 190.220947,450.856995 188.789200,451.151459 
	C174.008743,454.191162 159.351044,454.447693 144.721161,450.076813 
	C127.267250,444.862274 114.982903,434.060242 107.951691,417.218811 
	C101.153252,400.934937 92.490059,386.147095 76.643684,376.713104 
	C73.363968,374.760559 71.138306,371.037537 67.316620,366.940186 
	C72.296631,365.662689 75.575203,363.994202 78.771347,364.139465 
	C96.128860,364.928345 108.955444,374.163727 117.506996,388.387085 
	C130.170853,409.450287 147.369019,420.917053 172.416809,417.852234 
	C179.303741,417.009521 186.007401,414.524200 192.715988,412.526672 
	C193.703735,412.232544 194.711594,410.542450 194.928574,409.355377 
	C196.620529,400.098877 199.501434,391.327087 205.131607,383.678650 
	C206.919922,381.249268 209.148621,379.144043 211.451813,376.583649 
	C205.833008,375.637207 201.034836,374.722382 196.204361,374.034210 
	C177.410202,371.356476 159.546478,365.975708 143.220627,356.046844 
	C127.642593,346.572723 115.892990,333.550201 107.756027,317.305939 
	C97.616653,297.064178 95.011528,275.119995 94.148216,252.941544 
	C93.869316,245.776672 94.990234,238.492584 96.065521,231.352600 
	C98.687523,213.942215 105.945023,198.523575 117.435585,185.224930 
	C119.958038,182.305557 120.065453,179.950378 119.274788,176.331497 
	C117.395576,167.730377 114.810722,158.834274 115.396332,150.254288 
	C116.176949,138.817291 119.683899,127.565048 122.041840,116.238037 
	C122.548553,113.803917 123.980347,112.508034 126.578178,113.007507 
	C134.888657,114.605339 143.762527,114.898827 151.374741,118.144653 
	C164.844727,123.888229 177.526550,131.472626 190.598007,138.169937 
	C191.950668,138.862976 193.782959,139.216385 195.264923,138.967255 
	C208.472366,136.746902 221.573471,133.580704 234.861816,132.250214 
	C246.286346,131.106339 257.915039,131.970367 269.453278,132.001007 
	C285.142303,132.042679 300.426941,134.772446 315.579620,138.671722 
	C318.266479,139.363144 321.814484,139.247284 324.227631,138.035797 
	C336.464172,131.892685 348.303833,124.952324 360.589447,118.915916 
	C369.017426,114.774940 378.174500,112.651115 387.701385,113.070869 
	C388.922333,113.124657 390.822266,113.835747 391.191223,114.739128 
	C396.390411,127.469902 399.309753,140.831879 398.725800,154.507431 
	C398.375427,162.712341 395.588226,170.798111 394.180725,178.986298 
	C393.915710,180.528137 394.494904,182.746460 395.526215,183.900482 
	C412.435516,202.822220 419.526154,225.449432 419.814148,250.263855 
	C419.935516,260.721191 418.321533,271.242889 416.951477,281.663727 
	C414.367676,301.317017 407.445190,319.132568 394.853668,334.822906 
	C378.721100,354.925659 357.219330,365.369843 332.838348,370.950928 
	C323.045776,373.192566 313.095581,374.745514 302.879120,376.675781 
	C303.328857,377.399811 303.564209,378.006378 303.986145,378.424774 
	C315.684296,390.024048 319.790344,404.601227 319.940277,420.475708 
	C320.168488,444.635620 319.993408,468.799225 320.003052,492.961273 
	C320.007263,503.494171 324.615143,508.346954 334.912567,507.869110 
	C338.376953,507.708313 341.824371,506.180084 345.188293,505.013580 
	C375.301239,494.571838 402.030609,478.133484 425.884064,457.331604 
	C442.889404,442.501740 457.728851,425.484283 470.240540,406.515259 
	C484.293640,385.209320 495.312012,362.496887 502.361877,338.003387 
	C505.602142,326.745636 507.600311,315.123077 509.983429,303.628967 
	C511.192993,297.794952 512.007080,291.878937 513.000000,286.000000 
z"/>
<path fill="#5C6BC0" opacity="1.000000" stroke="none" 
	d="
M513.000000,285.531342 
	C512.007080,291.878937 511.192993,297.794952 509.983429,303.628967 
	C507.600311,315.123077 505.602142,326.745636 502.361877,338.003387 
	C495.312012,362.496887 484.293640,385.209320 470.240540,406.515259 
	C457.728851,425.484283 442.889404,442.501740 425.884064,457.331604 
	C402.030609,478.133484 375.301239,494.571838 345.188293,505.013580 
	C341.824371,506.180084 338.376953,507.708313 334.912567,507.869110 
	C324.615143,508.346954 320.007263,503.494171 320.003052,492.961273 
	C319.993408,468.799225 320.168488,444.635620 319.940277,420.475708 
	C319.790344,404.601227 315.684296,390.024048 303.986145,378.424774 
	C303.564209,378.006378 303.328857,377.399811 302.879120,376.675781 
	C313.095581,374.745514 323.045776,373.192566 332.838348,370.950928 
	C357.219330,365.369843 378.721100,354.925659 394.853668,334.822906 
	C407.445190,319.132568 414.367676,301.317017 416.951477,281.663727 
	C418.321533,271.242889 419.935516,260.721191 419.814148,250.263855 
	C419.526154,225.449432 412.435516,202.822220 395.526215,183.900482 
	C394.494904,182.746460 393.915710,180.528137 394.180725,178.986298 
	C395.588226,170.798111 398.375427,162.712341 398.725800,154.507431 
	C399.309753,140.831879 396.390411,127.469902 391.191223,114.739128 
	C390.822266,113.835747 388.922333,113.124657 387.701385,113.070869 
	C378.174500,112.651115 369.017426,114.774940 360.589447,118.915916 
	C348.303833,124.952324 336.464172,131.892685 324.227631,138.035797 
	C321.814484,139.247284 318.266479,139.363144 315.579620,138.671722 
	C300.426941,134.772446 285.142303,132.042679 269.453278,132.001007 
	C257.915039,131.970367 246.286346,131.106339 234.861816,132.250214 
	C221.573471,133.580704 208.472366,136.746902 195.264923,138.967255 
	C193.782959,139.216385 191.950668,138.862976 190.598007,138.169937 
	C177.526550,131.472626 164.844727,123.888229 151.374741,118.144653 
	C143.762527,114.898827 134.888657,114.605339 126.578178,113.007507 
	C123.980347,112.508034 122.548553,113.803917 122.041840,116.238037 
	C119.683899,127.565048 116.176949,138.817291 115.396332,150.254288 
	C114.810722,158.834274 117.395576,167.730377 119.274788,176.331497 
	C120.065453,179.950378 119.958038,182.305557 117.435585,185.224930 
	C105.945023,198.523575 98.687523,213.942215 96.065521,231.352600 
	C94.990234,238.492584 93.869316,245.776672 94.148216,252.941544 
	C95.011528,275.119995 97.616653,297.064178 107.756027,317.305939 
	C115.892990,333.550201 127.642593,346.572723 143.220627,356.046844 
	C159.546478,365.975708 177.410202,371.356476 196.204361,374.034210 
	C201.034836,374.722382 205.833008,375.637207 211.451813,376.583649 
	C209.148621,379.144043 206.919922,381.249268 205.131607,383.678650 
	C199.501434,391.327087 196.620529,400.098877 194.928574,409.355377 
	C194.711594,410.542450 193.703735,412.232544 192.715988,412.526672 
	C186.007401,414.524200 179.303741,417.009521 172.416809,417.852234 
	C147.369019,420.917053 130.170853,409.450287 117.506996,388.387085 
	C108.955444,374.163727 96.128860,364.928345 78.771347,364.139465 
	C75.575203,363.994202 72.296631,365.662689 67.316620,366.940186 
	C71.138306,371.037537 73.363968,374.760559 76.643684,376.713104 
	C92.490059,386.147095 101.153252,400.934937 107.951691,417.218811 
	C114.982903,434.060242 127.267250,444.862274 144.721161,450.076813 
	C159.351044,454.447693 174.008743,454.191162 188.789200,451.151459 
	C190.220947,450.856995 191.765732,451.112091 194.000000,451.112091 
	C194.000000,454.098328 194.000000,457.020844 194.000000,459.943359 
	C194.000000,471.107880 193.835022,482.275482 194.042496,493.436157 
	C194.291794,506.847015 182.991623,510.666534 173.428970,506.703857 
	C161.504135,501.762329 149.429428,497.064911 137.917908,491.271576 
	C121.354683,482.935974 106.090805,472.471375 91.907310,460.447906 
	C70.400238,442.216187 52.182041,421.121826 37.678757,397.011597 
	C22.331455,371.498322 11.218332,344.203400 6.004801,314.724335 
	C4.866431,308.287567 4.006013,301.801971 2.934927,295.352570 
	C2.813179,294.619507 2.153850,293.975739 1.371896,293.145264 
	C1.000000,273.312439 1.000000,253.624878 1.352204,233.302170 
	C2.135508,231.272141 2.712195,229.903976 2.973803,228.478012 
	C4.535782,219.963974 5.650304,211.349365 7.610592,202.930466 
	C13.015866,179.716278 21.794430,157.813843 33.428417,136.969788 
	C44.138020,117.781929 57.227222,100.398293 72.216110,84.471298 
	C78.992226,77.271080 86.305756,70.373466 94.243881,64.515305 
	C107.779716,54.526161 121.544785,44.683167 136.056747,36.225555 
	C151.879578,27.003979 169.081146,20.548780 186.797028,15.530004 
	C205.000992,10.372959 223.557816,7.143857 242.348145,6.185316 
	C262.145081,5.175428 281.905762,6.290786 301.579071,9.818217 
	C324.589722,13.944038 346.564270,20.829773 367.599304,30.906300 
	C384.955139,39.220345 400.960175,49.562489 416.164429,61.413265 
	C433.351379,74.809425 448.141418,90.332108 461.260559,107.603264 
	C473.295441,123.447044 483.263397,140.449585 491.376190,158.648438 
	C501.368713,181.063919 508.002411,204.326889 511.028168,228.657410 
	C511.542023,232.789444 512.335632,236.886688 513.000000,241.000000 
	C513.000000,255.687561 513.000000,270.375122 513.000000,285.531342 
z"/>
<path fill="#FFFFFF" opacity="1.000000" stroke="none" 
	d="
M513.000000,240.531342 
	C512.335632,236.886688 511.542023,232.789444 511.028168,228.657410 
	C508.002411,204.326889 501.368713,181.063919 491.376190,158.648438 
	C483.263397,140.449585 473.295441,123.447044 461.260559,107.603264 
	C448.141418,90.332108 433.351379,74.809425 416.164429,61.413265 
	C400.960175,49.562489 384.955139,39.220345 367.599304,30.906300 
	C346.564270,20.829773 324.589722,13.944038 301.579071,9.818217 
	C281.905762,6.290786 262.145081,5.175428 242.348145,6.185316 
	C223.557816,7.143857 205.000992,10.372959 186.797028,15.530004 
	C169.081146,20.548780 151.879578,27.003979 136.056747,36.225555 
	C121.544785,44.683167 107.779716,54.526161 94.243881,64.515305 
	C86.305756,70.373466 78.992226,77.271080 72.216110,84.471298 
	C57.227222,100.398293 44.138020,117.781929 33.428417,136.969788 
	C21.794430,157.813843 13.015866,179.716278 7.610592,202.930466 
	C5.650304,211.349365 4.535782,219.963974 2.973803,228.478012 
	C2.712195,229.903976 2.135508,231.272141 1.352204,232.833511 
	C1.000000,155.701035 1.000000,78.402077 1.000000,1.051559 
	C171.556427,1.051559 342.112854,1.051559 513.000000,1.051559 
	C513.000000,80.687256 513.000000,160.374969 513.000000,240.531342 
z"/>
</svg>