<svg version="1.1" id="Layer_1" xmlns="http://www.w3.org/2000/svg" xmlns:xlink="http://www.w3.org/1999/xlink" x="0px" y="0px"
	 width="100%" viewBox="0 0 512 512" enable-background="new 0 0 512 512" xml:space="preserve">
<path fill="#03A9F4" opacity="1.000000" stroke="none" 
	d="
M289.000000,513.000000 
	C267.979095,513.000000 246.958206,513.000000 225.805176,512.659546 
	C224.996368,511.893097 224.363892,511.204926 223.636078,511.082214 
	C217.222488,510.000854 210.759064,509.193115 204.372116,507.979462 
	C176.989136,502.776306 151.371201,492.657684 127.414230,478.664001 
	C102.325745,464.009399 80.517143,445.271088 61.551086,423.161255 
	C49.494705,409.106415 39.011604,393.985535 30.423479,377.691833 
	C16.078285,350.475525 6.260093,321.687592 2.916150,290.906097 
	C2.840484,290.209564 1.663344,289.632690 0.999999,289.000000 
	C1.000000,267.645782 1.000000,246.291550 1.382519,224.699097 
	C2.168587,223.781250 2.783005,223.148041 2.944453,222.415070 
	C5.977083,208.647125 8.393863,194.714600 12.085282,181.127838 
	C16.946083,163.236984 24.633718,146.451401 33.858055,130.308823 
	C42.779057,114.697121 53.017246,100.042992 64.997314,86.739517 
	C73.067551,77.777794 82.139320,69.685905 91.059532,61.529125 
	C104.696724,49.059067 120.101883,38.948414 136.367966,30.379753 
	C163.569000,16.050760 192.349777,6.289880 223.096420,2.916240 
	C223.792648,2.839847 224.368164,1.663339 225.000000,0.999995 
	C246.020889,1.000000 267.041779,1.000000 288.194611,1.339812 
	C289.169067,2.116296 289.965820,2.763869 290.860931,2.958086 
	C304.804077,5.983277 318.904297,8.406258 332.676910,12.065014 
	C350.627686,16.833729 367.409729,24.594105 383.584747,33.800171 
	C399.216370,42.696938 414.010620,52.804474 427.153473,64.952705 
	C437.806091,74.799164 447.627411,85.646584 457.033234,96.716370 
	C470.997650,113.151291 482.000549,131.536545 490.781311,151.290298 
	C500.999420,174.277649 508.395172,197.998962 511.084198,223.094177 
	C511.158752,223.789886 512.336609,224.367386 513.000000,225.000000 
	C513.000000,246.020889 513.000000,267.041779 512.658813,288.194855 
	C511.892273,289.003113 511.225769,289.630310 511.077301,290.362518 
	C508.308319,304.018463 506.607391,317.983368 502.686401,331.295563 
	C492.132202,367.128204 474.102997,399.140686 449.250122,426.981873 
	C439.613434,437.777222 428.547424,447.393280 417.514252,456.823120 
	C400.497803,471.366760 381.393616,482.719299 360.836060,491.643280 
	C338.416626,501.375488 315.318970,508.554840 290.902405,511.084778 
	C290.209564,511.156555 289.631561,512.336670 289.000000,513.000000 
M419.754944,155.470245 
	C409.013214,159.620590 398.121765,163.158203 385.709686,164.285339 
	C403.548615,148.391357 411.992981,136.823380 412.284424,128.424591 
	C406.331787,131.191086 400.425537,134.306442 394.241516,136.705856 
	C388.054810,139.106308 381.612640,140.866135 375.237274,142.754074 
	C372.539001,143.553101 370.218933,143.669174 367.642181,141.204758 
	C346.306061,120.798912 315.340057,116.452766 289.483582,129.927917 
	C263.348053,143.548508 249.163086,171.883881 253.651642,201.416916 
	C253.858185,202.775940 253.678146,204.193695 253.678146,205.650024 
	C226.247482,204.137268 200.724716,197.245972 176.652954,185.062027 
	C152.451584,172.812439 131.861557,155.974075 113.912018,134.293991 
	C97.353821,170.008713 104.110245,199.754715 133.137253,224.937515 
	C132.843719,225.403030 132.550186,225.868530 132.256668,226.334030 
	C123.107941,223.756042 113.959221,221.178055 104.612282,218.544205 
	C104.579208,234.038773 109.625801,248.003876 119.314369,260.277893 
	C129.062317,272.627136 141.860153,280.451111 157.130936,284.389038 
	C157.065811,284.873505 157.000671,285.357971 156.935547,285.842438 
	C147.599091,285.842438 138.262650,285.842438 128.053009,285.842438 
	C139.548645,315.043976 160.341064,330.266785 191.272125,333.460724 
	C161.916412,355.828430 129.334686,364.188568 93.622887,362.232239 
	C121.751106,379.935760 151.996567,389.692261 184.769852,391.380798 
	C221.487366,393.272614 256.836456,387.298096 288.782654,368.801880 
	C355.502014,330.172638 387.593201,270.942444 389.022949,194.485535 
	C389.092987,190.741196 390.105225,188.562500 393.042297,186.273773 
	C403.990387,177.742493 413.795166,168.052841 421.557556,155.886154 
	C421.199677,155.685287 420.841766,155.484436 419.754944,155.470245 
z"/>
<path fill="#000000" opacity="1.000000" stroke="none" 
	d="
M0.999999,289.468658 
	C1.663344,289.632690 2.840484,290.209564 2.916150,290.906097 
	C6.260093,321.687592 16.078285,350.475525 30.423479,377.691833 
	C39.011604,393.985535 49.494705,409.106415 61.551086,423.161255 
	C80.517143,445.271088 102.325745,464.009399 127.414230,478.664001 
	C151.371201,492.657684 176.989136,502.776306 204.372116,507.979462 
	C210.759064,509.193115 217.222488,510.000854 223.636078,511.082214 
	C224.363892,511.204926 224.996368,511.893097 225.336517,512.659546 
	C150.406296,513.000000 75.812599,513.000000 1.000000,513.000000 
	C1.000000,438.645905 1.000000,364.291626 0.999999,289.468658 
z"/>
<path fill="#000000" opacity="1.000000" stroke="none" 
	d="
M513.000000,224.531342 
	C512.336609,224.367386 511.158752,223.789886 511.084198,223.094177 
	C508.395172,197.998962 500.999420,174.277649 490.781311,151.290298 
	C482.000549,131.536545 470.997650,113.151291 457.033234,96.716370 
	C447.627411,85.646584 437.806091,74.799164 427.153473,64.952705 
	C414.010620,52.804474 399.216370,42.696938 383.584747,33.800171 
	C367.409729,24.594105 350.627686,16.833729 332.676910,12.065014 
	C318.904297,8.406258 304.804077,5.983277 290.860931,2.958086 
	C289.965820,2.763869 289.169067,2.116296 288.663269,1.339812 
	C363.593719,1.000000 438.187408,1.000000 513.000000,1.000000 
	C513.000000,75.354088 513.000000,149.708389 513.000000,224.531342 
z"/>
<path fill="#000000" opacity="1.000000" stroke="none" 
	d="
M289.468658,513.000000 
	C289.631561,512.336670 290.209564,511.156555 290.902405,511.084778 
	C315.318970,508.554840 338.416626,501.375488 360.836060,491.643280 
	C381.393616,482.719299 400.497803,471.366760 417.514252,456.823120 
	C428.547424,447.393280 439.613434,437.777222 449.250122,426.981873 
	C474.102997,399.140686 492.132202,367.128204 502.686401,331.295563 
	C506.607391,317.983368 508.308319,304.018463 511.077301,290.362518 
	C511.225769,289.630310 511.892273,289.003113 512.658813,288.663513 
	C513.000000,363.593719 513.000000,438.187408 513.000000,513.000000 
	C438.645905,513.000000 364.291626,513.000000 289.468658,513.000000 
z"/>
<path fill="#000000" opacity="1.000000" stroke="none" 
	d="
M224.531342,0.999995 
	C224.368164,1.663339 223.792648,2.839847 223.096420,2.916240 
	C192.349777,6.289880 163.569000,16.050760 136.367966,30.379753 
	C120.101883,38.948414 104.696724,49.059067 91.059532,61.529125 
	C82.139320,69.685905 73.067551,77.777794 64.997314,86.739517 
	C53.017246,100.042992 42.779057,114.697121 33.858055,130.308823 
	C24.633718,146.451401 16.946083,163.236984 12.085282,181.127838 
	C8.393863,194.714600 5.977083,208.647125 2.944453,222.415070 
	C2.783005,223.148041 2.168587,223.781250 1.382519,224.230438 
	C1.000000,149.739456 1.000000,75.478920 1.000000,1.000000 
	C75.354088,1.000000 149.708389,1.000000 224.531342,0.999995 
z"/>
<path fill="#FEFFFF" opacity="1.000000" stroke="none" 
	d="
M421.102020,156.091660 
	C413.795166,168.052841 403.990387,177.742493 393.042297,186.273773 
	C390.105225,188.562500 389.092987,190.741196 389.022949,194.485535 
	C387.593201,270.942444 355.502014,330.172638 288.782654,368.801880 
	C256.836456,387.298096 221.487366,393.272614 184.769852,391.380798 
	C151.996567,389.692261 121.751106,379.935760 93.622887,362.232239 
	C129.334686,364.188568 161.916412,355.828430 191.272125,333.460724 
	C160.341064,330.266785 139.548645,315.043976 128.053009,285.842438 
	C138.262650,285.842438 147.599091,285.842438 156.935547,285.842438 
	C157.000671,285.357971 157.065811,284.873505 157.130936,284.389038 
	C141.860153,280.451111 129.062317,272.627136 119.314369,260.277893 
	C109.625801,248.003876 104.579208,234.038773 104.612282,218.544205 
	C113.959221,221.178055 123.107941,223.756042 132.256668,226.334030 
	C132.550186,225.868530 132.843719,225.403030 133.137253,224.937515 
	C104.110245,199.754715 97.353821,170.008713 113.912018,134.293991 
	C131.861557,155.974075 152.451584,172.812439 176.652954,185.062027 
	C200.724716,197.245972 226.247482,204.137268 253.678146,205.650024 
	C253.678146,204.193695 253.858185,202.775940 253.651642,201.416916 
	C249.163086,171.883881 263.348053,143.548508 289.483582,129.927917 
	C315.340057,116.452766 346.306061,120.798912 367.642181,141.204758 
	C370.218933,143.669174 372.539001,143.553101 375.237274,142.754074 
	C381.612640,140.866135 388.054810,139.106308 394.241516,136.705856 
	C400.425537,134.306442 406.331787,131.191086 412.284424,128.424591 
	C411.992981,136.823380 403.548615,148.391357 385.709686,164.285339 
	C398.121765,163.158203 409.013214,159.620590 420.266052,155.584991 
	C420.885437,155.830383 420.993713,155.961029 421.102020,156.091660 
z"/>
<path fill="#FEFFFF" opacity="1.000000" stroke="none" 
	d="
M420.630493,155.491669 
	C420.841766,155.484436 421.199677,155.685287 421.329773,155.988907 
	C420.993713,155.961029 420.885437,155.830383 420.630493,155.491669 
z"/>
</svg>